<svg width="612px" height="600px" id="svg_tooth" xmlns="http://www.w3.org/2000/svg" version="1.1" viewBox="0 350 1000 1080">
                            <path fill="#000000" d="&#xA;        M 268.09 487.91&#xA;        Q 263.83 483.60 261.05 478.20&#xA;        Q 254.18 464.83 253.60 449.76&#xA;        Q 252.90 431.63 252.65 413.50&#xA;        Q 252.45 398.11 253.49 382.75&#xA;        Q 253.86 377.34 256.01 372.40&#xA;        Q 259.35 364.70 267.25 368.25&#xA;        Q 268.87 368.98 271.44 371.08&#xA;        Q 285.39 382.49 298.56 397.44&#xA;        Q 306.20 406.10 310.94 415.31&#xA;        Q 311.61 416.63 312.27 419.07&#xA;        Q 312.74 420.82 312.86 422.98&#xA;        Q 314.08 446.39 313.25 467.25&#xA;        Q 312.48 486.47 295.58 492.07&#xA;        Q 291.77 493.33 287.18 493.68&#xA;        Q 282.50 494.03 278.56 493.44&#xA;        Q 272.70 492.56 268.09 487.91&#xA;        Z&#xA;        M 270.33 486.42&#xA;        Q 274.38 490.41 280.50 491.00&#xA;        Q 287.46 491.67 293.66 489.87&#xA;        Q 300.38 487.91 304.67 483.29&#xA;        Q 310.67 476.85 310.79 467.00&#xA;        Q 311.05 445.90 310.37 424.82&#xA;        Q 310.25 420.90 309.01 417.90&#xA;        Q 305.44 409.29 298.31 401.19&#xA;        Q 283.54 384.40 270.22 373.27&#xA;        Q 268.05 371.46 265.48 370.31&#xA;        Q 262.48 368.97 260.39 370.40&#xA;        Q 259.00 371.35 257.95 374.19&#xA;        Q 255.90 379.75 255.70 385.75&#xA;        Q 254.81 412.95 255.88 440.14&#xA;        Q 256.41 453.73 256.83 456.86&#xA;        Q 257.97 465.22 261.31 473.12&#xA;        Q 264.50 480.68 270.33 486.42&#xA;        Z"/>
                            <path fill="#000000" d="&#xA;        M 692.27 486.97&#xA;        Q 683.89 479.03 683.74 467.25&#xA;        Q 683.49 447.02 684.12 426.81&#xA;        Q 684.27 421.74 685.17 418.79&#xA;        Q 686.35 414.86 688.58 411.32&#xA;        Q 691.50 406.69 694.94 402.42&#xA;        Q 709.06 384.93 726.50 370.75&#xA;        Q 727.58 369.87 729.48 368.86&#xA;        Q 731.23 367.93 732.78 367.67&#xA;        Q 739.61 366.54 741.75 373.50&#xA;        Q 743.57 379.43 744.07 386.80&#xA;        Q 744.21 389.00 744.38 400.22&#xA;        Q 744.75 426.37 743.33 452.50&#xA;        Q 742.62 465.77 736.71 477.64&#xA;        Q 734.34 482.40 729.94 487.19&#xA;        Q 727.17 490.21 723.93 491.96&#xA;        Q 720.96 493.57 716.68 493.97&#xA;        Q 709.54 494.64 702.51 492.72&#xA;        Q 696.65 491.12 692.27 486.97&#xA;        Z&#xA;        M 694.69 485.81&#xA;        Q 703.45 492.61 715.11 491.56&#xA;        Q 719.55 491.15 722.68 489.66&#xA;        Q 726.45 487.87 728.94 484.69&#xA;        Q 736.39 475.14 739.22 463.37&#xA;        Q 740.66 457.39 741.18 443.50&#xA;        Q 742.21 415.88 741.62 388.25&#xA;        Q 741.45 380.37 738.53 373.12&#xA;        Q 737.15 369.68 734.00 370.00&#xA;        Q 731.49 370.25 728.43 372.71&#xA;        Q 710.93 386.81 696.67 404.17&#xA;        Q 692.82 408.86 689.81 414.11&#xA;        Q 686.98 419.03 686.75 424.25&#xA;        Q 685.83 444.66 686.45 468.25&#xA;        Q 686.74 479.65 694.69 485.81&#xA;        Z"/>
                            <path id="tooth" fill="#ffffff" d="&#xA;        M 270.33 486.42&#xA;        Q 264.50 480.68 261.31 473.12&#xA;        Q 257.97 465.22 256.83 456.86&#xA;        Q 256.41 453.73 255.88 440.14&#xA;        Q 254.81 412.95 255.70 385.75&#xA;        Q 255.90 379.75 257.95 374.19&#xA;        Q 259.00 371.35 260.39 370.40&#xA;        Q 262.48 368.97 265.48 370.31&#xA;        Q 268.05 371.46 270.22 373.27&#xA;        Q 283.54 384.40 298.31 401.19&#xA;        Q 305.44 409.29 309.01 417.90&#xA;        Q 310.25 420.90 310.37 424.82&#xA;        Q 311.05 445.90 310.79 467.00&#xA;        Q 310.67 476.85 304.67 483.29&#xA;        Q 300.38 487.91 293.66 489.87&#xA;        Q 287.46 491.67 280.50 491.00&#xA;        Q 274.38 490.41 270.33 486.42&#xA;        Z"/>
                            <path fill="#000000" d="&#xA;        M 391.77 450.01&#xA;        Q 391.91 450.00 391.95 449.74&#xA;        Q 396.33 422.44 409.00 397.91&#xA;        Q 414.51 387.23 423.08 378.83&#xA;        Q 429.16 372.88 436.97 370.93&#xA;        Q 443.12 369.40 450.50 371.25&#xA;        Q 469.71 376.08 479.80 394.22&#xA;        Q 486.00 405.35 488.85 417.79&#xA;        Q 495.09 445.01 494.25 475.25&#xA;        Q 493.97 485.20 489.11 492.64&#xA;        Q 478.92 508.21 460.00 508.36&#xA;        Q 442.63 508.50 425.25 508.43&#xA;        Q 397.39 508.32 389.53 481.23&#xA;        Q 389.28 480.39 388.88 481.17&#xA;        Q 385.25 488.09 378.46 491.34&#xA;        Q 374.48 493.25 367.21 493.62&#xA;        Q 357.11 494.12 346.99 493.67&#xA;        Q 333.95 493.09 325.20 483.55&#xA;        Q 319.62 477.45 317.72 469.80&#xA;        Q 316.42 464.56 317.30 454.63&#xA;        Q 318.26 443.70 320.50 428.25&#xA;        Q 323.21 409.50 328.55 394.68&#xA;        Q 330.18 390.13 331.81 388.33&#xA;        Q 334.09 385.79 337.94 384.19&#xA;        Q 341.70 382.62 345.03 382.83&#xA;        Q 347.70 383.01 351.31 385.56&#xA;        Q 362.83 393.71 373.26 403.23&#xA;        Q 380.49 409.84 386.17 417.82&#xA;        Q 389.45 422.44 390.50 428.00&#xA;        Q 391.18 431.59 391.56 449.72&#xA;        A 0.29 0.19 87.0 0 0 391.77 450.01&#xA;        Z&#xA;        M 401.43 497.32&#xA;        Q 410.45 505.85 422.77 505.82&#xA;        Q 425.28 505.82 427.22 505.93&#xA;        Q 429.45 506.06 431.68 505.98&#xA;        Q 438.21 505.75 438.34 505.75&#xA;        Q 449.42 505.77 460.50 505.91&#xA;        Q 466.60 505.98 471.81 503.81&#xA;        Q 485.53 498.10 489.96 485.19&#xA;        Q 491.88 479.56 491.78 468.61&#xA;        Q 491.64 453.56 490.08 438.57&#xA;        Q 488.07 419.38 481.94 404.31&#xA;        Q 477.27 392.85 469.44 384.81&#xA;        Q 460.51 375.64 448.02 373.25&#xA;        Q 441.49 372.00 436.09 373.80&#xA;        Q 430.18 375.77 425.31 380.31&#xA;        Q 417.36 387.74 412.37 396.65&#xA;        Q 407.21 405.88 403.60 415.83&#xA;        Q 393.56 443.54 391.88 473.01&#xA;        Q 391.05 487.51 401.43 497.32&#xA;        Z&#xA;        M 329.68 484.32&#xA;        Q 337.52 491.00 347.00 491.00&#xA;        Q 356.17 491.00 365.34 491.00&#xA;        Q 371.88 491.00 375.48 489.68&#xA;        Q 384.02 486.54 387.29 478.37&#xA;        Q 389.04 473.99 389.09 464.40&#xA;        Q 389.17 449.08 388.32 433.79&#xA;        Q 387.96 427.27 386.33 423.48&#xA;        Q 384.06 418.19 379.81 413.69&#xA;        Q 365.15 398.15 348.36 386.75&#xA;        Q 346.33 385.37 344.26 385.37&#xA;        Q 338.31 385.37 334.46 389.36&#xA;        Q 332.27 391.62 330.56 396.28&#xA;        Q 329.25 399.83 328.19 403.94&#xA;        Q 321.79 428.69 319.98 453.51&#xA;        Q 319.15 464.88 320.45 469.92&#xA;        Q 322.60 478.29 329.68 484.32&#xA;        Z"/>
                            <path id="tooth" fill="#ffffff" d="&#xA;        M 694.69 485.81&#xA;        Q 686.74 479.65 686.45 468.25&#xA;        Q 685.83 444.66 686.75 424.25&#xA;        Q 686.98 419.03 689.81 414.11&#xA;        Q 692.82 408.86 696.67 404.17&#xA;        Q 710.93 386.81 728.43 372.71&#xA;        Q 731.49 370.25 734.00 370.00&#xA;        Q 737.15 369.68 738.53 373.12&#xA;        Q 741.45 380.37 741.62 388.25&#xA;        Q 742.21 415.88 741.18 443.50&#xA;        Q 740.66 457.39 739.22 463.37&#xA;        Q 736.39 475.14 728.94 484.69&#xA;        Q 726.45 487.87 722.68 489.66&#xA;        Q 719.55 491.15 715.11 491.56&#xA;        Q 703.45 492.61 694.69 485.81&#xA;        Z"/>
                            <path fill="#000000" d="&#xA;        M 607.43 481.64&#xA;        Q 602.73 502.03 583.59 507.45&#xA;        Q 579.02 508.75 571.26 508.75&#xA;        Q 556.72 508.75 542.19 508.75&#xA;        Q 531.35 508.75 526.46 507.28&#xA;        Q 516.35 504.23 509.69 495.56&#xA;        Q 502.71 486.48 502.69 474.25&#xA;        Q 502.67 457.59 504.26 441.00&#xA;        Q 505.46 428.49 509.19 414.69&#xA;        Q 512.58 402.14 518.95 391.97&#xA;        Q 526.15 380.50 537.68 374.82&#xA;        Q 547.27 370.11 555.88 370.63&#xA;        Q 565.88 371.24 573.86 378.89&#xA;        Q 581.44 386.18 586.53 395.40&#xA;        Q 600.78 421.25 605.22 450.50&#xA;        Q 605.26 450.75 605.45 450.75&#xA;        A 0.32 0.24 90.0 0 0 605.69 450.43&#xA;        Q 605.70 442.83 606.20 435.25&#xA;        Q 606.64 428.65 606.91 427.27&#xA;        Q 607.70 423.27 610.00 419.75&#xA;        Q 612.93 415.25 616.59 411.33&#xA;        Q 628.38 398.66 646.69 385.44&#xA;        Q 650.13 382.95 653.00 383.08&#xA;        Q 663.10 383.55 667.69 392.31&#xA;        Q 668.84 394.51 670.57 400.05&#xA;        Q 671.72 403.74 672.72 408.01&#xA;        Q 678.82 434.15 680.26 461.00&#xA;        Q 680.74 470.04 676.23 477.81&#xA;        Q 666.51 494.54 646.75 494.17&#xA;        Q 637.88 494.00 629.00 493.85&#xA;        Q 615.30 493.62 608.32 481.51&#xA;        Q 607.70 480.45 607.43 481.64&#xA;        Z&#xA;        M 516.44 498.81&#xA;        Q 522.98 504.39 531.12 505.82&#xA;        Q 533.63 506.26 546.91 506.30&#xA;        Q 560.36 506.34 573.80 506.10&#xA;        Q 580.01 505.99 584.02 504.65&#xA;        Q 599.80 499.36 604.34 483.38&#xA;        Q 605.62 478.85 605.28 472.50&#xA;        Q 603.30 435.86 587.61 402.60&#xA;        Q 582.60 391.98 574.67 383.33&#xA;        Q 569.25 377.42 561.82 374.41&#xA;        Q 556.50 372.26 552.00 373.00&#xA;        Q 529.35 376.73 518.54 397.61&#xA;        Q 515.38 403.71 513.75 408.50&#xA;        Q 507.43 427.03 506.25 447.75&#xA;        Q 505.71 457.17 505.55 463.91&#xA;        Q 505.24 476.56 505.77 480.07&#xA;        Q 507.42 491.12 516.44 498.81&#xA;        Z&#xA;        M 615.67 486.58&#xA;        Q 621.52 491.47 629.25 491.55&#xA;        Q 638.53 491.64 647.81 491.41&#xA;        Q 654.35 491.25 658.48 489.78&#xA;        Q 672.61 484.74 676.59 470.37&#xA;        Q 677.88 465.72 677.48 458.52&#xA;        Q 675.98 431.60 669.41 405.41&#xA;        Q 667.16 396.48 665.19 393.06&#xA;        Q 661.09 385.99 652.91 385.51&#xA;        Q 651.24 385.41 649.86 386.36&#xA;        Q 644.10 390.31 638.75 394.55&#xA;        Q 632.00 399.91 628.13 403.32&#xA;        Q 623.40 407.47 619.18 412.14&#xA;        Q 614.08 417.77 612.43 420.40&#xA;        Q 609.41 425.24 609.00 430.75&#xA;        Q 607.72 448.02 608.35 470.15&#xA;        Q 608.52 475.97 609.95 479.12&#xA;        Q 611.90 483.42 615.67 486.58&#xA;        Z"/>
                            <path id="tooth" fill="#f00" d="&#xA;        M 401.43 497.32&#xA;        Q 391.05 487.51 391.88 473.01&#xA;        Q 393.56 443.54 403.60 415.83&#xA;        Q 407.21 405.88 412.37 396.65&#xA;        Q 417.36 387.74 425.31 380.31&#xA;        Q 430.18 375.77 436.09 373.80&#xA;        Q 441.49 372.00 448.02 373.25&#xA;        Q 460.51 375.64 469.44 384.81&#xA;        Q 477.27 392.85 481.94 404.31&#xA;        Q 488.07 419.38 490.08 438.57&#xA;        Q 491.64 453.56 491.78 468.61&#xA;        Q 491.88 479.56 489.96 485.19&#xA;        Q 485.53 498.10 471.81 503.81&#xA;        Q 466.60 505.98 460.50 505.91&#xA;        Q 449.42 505.77 438.34 505.75&#xA;        Q 438.21 505.75 431.68 505.98&#xA;        Q 429.45 506.06 427.22 505.93&#xA;        Q 425.28 505.82 422.77 505.82&#xA;        Q 410.45 505.85 401.43 497.32&#xA;        Z"/>
                            <path id="tooth" fill="#f00" d="&#xA;        M 516.44 498.81&#xA;        Q 507.42 491.12 505.77 480.07&#xA;        Q 505.24 476.56 505.55 463.91&#xA;        Q 505.71 457.17 506.25 447.75&#xA;        Q 507.43 427.03 513.75 408.50&#xA;        Q 515.38 403.71 518.54 397.61&#xA;        Q 529.35 376.73 552.00 373.00&#xA;        Q 556.50 372.26 561.82 374.41&#xA;        Q 569.25 377.42 574.67 383.33&#xA;        Q 582.60 391.98 587.61 402.60&#xA;        Q 603.30 435.86 605.28 472.50&#xA;        Q 605.62 478.85 604.34 483.38&#xA;        Q 599.80 499.36 584.02 504.65&#xA;        Q 580.01 505.99 573.80 506.10&#xA;        Q 560.36 506.34 546.91 506.30&#xA;        Q 533.63 506.26 531.12 505.82&#xA;        Q 522.98 504.39 516.44 498.81&#xA;        Z"/>
                            <path fill="#000000" d="&#xA;        M 182.96 447.50&#xA;        L 180.54 418.00&#xA;        Q 180.39 413.55 180.30 409.11&#xA;        Q 180.30 409.01 179.98 403.91&#xA;        Q 179.66 398.76 181.10 393.79&#xA;        Q 181.64 391.90 182.61 391.19&#xA;        Q 184.02 390.14 185.98 390.90&#xA;        Q 187.31 391.43 188.32 392.45&#xA;        Q 199.92 404.08 208.85 416.28&#xA;        Q 209.34 416.95 209.28 416.13&#xA;        Q 208.47 404.76 208.46 393.75&#xA;        Q 208.46 387.85 210.31 384.31&#xA;        Q 212.14 380.82 215.75 381.75&#xA;        Q 218.05 382.34 220.71 384.78&#xA;        Q 227.73 391.20 240.19 403.56&#xA;        Q 244.95 408.28 248.06 413.22&#xA;        Q 249.42 415.38 249.76 418.26&#xA;        Q 252.32 439.93 253.88 461.69&#xA;        Q 254.43 469.24 253.27 472.21&#xA;        Q 251.02 477.94 243.75 479.00&#xA;        Q 237.82 479.86 231.75 477.50&#xA;        Q 225.72 475.16 219.23 468.65&#xA;        Q 217.69 467.10 216.63 465.55&#xA;        Q 215.37 463.70 214.61 462.03&#xA;        Q 213.83 460.34 213.75 462.20&#xA;        Q 213.28 472.77 202.50 471.75&#xA;        Q 199.07 471.43 196.02 469.64&#xA;        Q 193.56 468.19 190.73 465.56&#xA;        Q 183.14 458.54 182.96 447.50&#xA;        Z&#xA;        M 222.40 468.10&#xA;        Q 226.51 471.79 231.36 474.45&#xA;        Q 234.80 476.34 239.75 476.50&#xA;        Q 249.55 476.82 251.26 469.68&#xA;        Q 251.78 467.53 251.10 458.30&#xA;        Q 249.64 438.66 247.28 419.09&#xA;        Q 246.91 416.04 245.51 413.89&#xA;        Q 243.21 410.36 239.56 406.69&#xA;        Q 226.36 393.39 219.81 387.18&#xA;        Q 217.52 385.01 215.73 384.56&#xA;        Q 212.42 383.72 211.85 387.09&#xA;        Q 210.77 393.49 211.03 399.75&#xA;        Q 212.15 426.94 215.17 453.98&#xA;        Q 216.12 462.46 222.40 468.10&#xA;        Z&#xA;        M 195.95 466.55&#xA;        Q 199.10 468.96 202.25 469.25&#xA;        Q 212.10 470.17 211.39 460.24&#xA;        Q 209.94 440.11 207.71 420.31&#xA;        Q 207.54 418.73 206.58 417.45&#xA;        Q 196.91 404.45 186.13 393.99&#xA;        Q 183.72 391.65 183.25 394.98&#xA;        Q 182.22 402.41 182.72 409.86&#xA;        Q 183.14 416.09 183.14 416.15&#xA;        Q 184.19 438.36 186.00 452.00&#xA;        Q 186.75 457.68 190.95 462.06&#xA;        Q 193.37 464.59 195.95 466.55&#xA;        Z"/>
                            <path fill="#000000" d="&#xA;        M 815.79 428.00&#xA;        L 814.29 449.00&#xA;        Q 813.34 461.61 802.50 469.00&#xA;        Q 798.17 471.95 794.00 472.26&#xA;        Q 785.72 472.88 783.72 465.41&#xA;        Q 783.63 465.09 783.53 463.58&#xA;        Q 783.48 462.87 783.21 462.21&#xA;        Q 783.02 461.72 782.76 462.19&#xA;        Q 777.70 471.28 767.31 476.81&#xA;        Q 759.07 481.21 751.25 479.00&#xA;        Q 742.55 476.54 743.17 466.51&#xA;        Q 744.72 441.83 747.50 417.24&#xA;        Q 747.80 414.62 749.48 412.61&#xA;        Q 761.94 397.71 776.94 384.94&#xA;        Q 778.65 383.48 780.17 382.70&#xA;        Q 782.17 381.69 783.93 382.20&#xA;        Q 786.34 382.90 787.41 385.95&#xA;        Q 788.47 388.95 788.55 392.14&#xA;        Q 788.85 403.42 788.03 416.50&#xA;        Q 788.00 417.00 788.30 416.59&#xA;        Q 797.38 404.15 808.41 393.41&#xA;        Q 810.54 391.33 812.21 391.07&#xA;        Q 815.31 390.60 816.30 394.69&#xA;        Q 817.49 399.65 817.23 404.75&#xA;        Q 816.63 416.38 815.79 428.00&#xA;        Z&#xA;        M 749.44 475.31&#xA;        Q 752.10 477.05 755.46 477.06&#xA;        Q 758.31 477.08 761.53 476.38&#xA;        Q 763.93 475.86 766.07 474.64&#xA;        Q 766.09 474.63 770.16 472.14&#xA;        Q 781.21 465.35 782.50 451.50&#xA;        Q 785.07 423.92 785.92 404.31&#xA;        Q 785.92 404.24 786.18 400.20&#xA;        Q 786.61 393.50 785.06 386.93&#xA;        Q 784.18 383.20 780.92 385.20&#xA;        Q 778.36 386.78 775.94 389.11&#xA;        Q 771.85 393.03 771.78 393.10&#xA;        Q 761.61 402.26 752.79 412.73&#xA;        Q 750.82 415.07 750.30 417.40&#xA;        Q 749.82 419.60 749.50 422.75&#xA;        Q 746.31 454.66 745.72 467.26&#xA;        Q 745.46 472.72 749.44 475.31&#xA;        Z&#xA;        M 791.28 469.57&#xA;        Q 794.22 470.29 797.06 469.06&#xA;        Q 807.28 464.65 810.42 455.22&#xA;        Q 811.37 452.37 812.66 437.31&#xA;        Q 814.17 419.79 814.48 402.20&#xA;        Q 814.49 402.14 814.57 400.29&#xA;        Q 814.72 396.89 813.49 394.50&#xA;        A 1.42 1.42 -36.4 0 0 811.22 394.16&#xA;        Q 801.31 404.11 792.94 414.45&#xA;        Q 789.92 418.19 789.75 419.50&#xA;        Q 787.18 438.90 786.07 458.45&#xA;        Q 786.07 458.50 785.78 461.03&#xA;        Q 785.43 464.05 786.89 466.43&#xA;        Q 788.36 468.85 791.28 469.57&#xA;        Z"/>
                            <path id="tooth" fill="#f00" d="&#xA;        M 222.40 468.10&#xA;        Q 216.12 462.46 215.17 453.98&#xA;        Q 212.15 426.94 211.03 399.75&#xA;        Q 210.77 393.49 211.85 387.09&#xA;        Q 212.42 383.72 215.73 384.56&#xA;        Q 217.52 385.01 219.81 387.18&#xA;        Q 226.36 393.39 239.56 406.69&#xA;        Q 243.21 410.36 245.51 413.89&#xA;        Q 246.91 416.04 247.28 419.09&#xA;        Q 249.64 438.66 251.10 458.30&#xA;        Q 251.78 467.53 251.26 469.68&#xA;        Q 249.55 476.82 239.75 476.50&#xA;        Q 234.80 476.34 231.36 474.45&#xA;        Q 226.51 471.79 222.40 468.10&#xA;        Z"/>
                            <path id="tooth" fill="#ffffff" d="&#xA;        M 749.44 475.31&#xA;        Q 745.46 472.72 745.72 467.26&#xA;        Q 746.31 454.66 749.50 422.75&#xA;        Q 749.82 419.60 750.30 417.40&#xA;        Q 750.82 415.07 752.79 412.73&#xA;        Q 761.61 402.26 771.78 393.10&#xA;        Q 771.85 393.03 775.94 389.11&#xA;        Q 778.36 386.78 780.92 385.20&#xA;        Q 784.18 383.20 785.06 386.93&#xA;        Q 786.61 393.50 786.18 400.20&#xA;        Q 785.92 404.24 785.92 404.31&#xA;        Q 785.07 423.92 782.50 451.50&#xA;        Q 781.21 465.35 770.16 472.14&#xA;        Q 766.09 474.63 766.07 474.64&#xA;        Q 763.93 475.86 761.53 476.38&#xA;        Q 758.31 477.08 755.46 477.06&#xA;        Q 752.10 477.05 749.44 475.31&#xA;        Z"/>
                            <path id="tooth" fill="#ffffff" d="&#xA;        M 329.68 484.32&#xA;        Q 322.60 478.29 320.45 469.92&#xA;        Q 319.15 464.88 319.98 453.51&#xA;        Q 321.79 428.69 328.19 403.94&#xA;        Q 329.25 399.83 330.56 396.28&#xA;        Q 332.27 391.62 334.46 389.36&#xA;        Q 338.31 385.37 344.26 385.37&#xA;        Q 346.33 385.37 348.36 386.75&#xA;        Q 365.15 398.15 379.81 413.69&#xA;        Q 384.06 418.19 386.33 423.48&#xA;        Q 387.96 427.27 388.32 433.79&#xA;        Q 389.17 449.08 389.09 464.40&#xA;        Q 389.04 473.99 387.29 478.37&#xA;        Q 384.02 486.54 375.48 489.68&#xA;        Q 371.88 491.00 365.34 491.00&#xA;        Q 356.17 491.00 347.00 491.00&#xA;        Q 337.52 491.00 329.68 484.32&#xA;        Z"/>
                            <path id="tooth" fill="#f00" d="&#xA;        M 615.67 486.58&#xA;        Q 611.90 483.42 609.95 479.12&#xA;        Q 608.52 475.97 608.35 470.15&#xA;        Q 607.72 448.02 609.00 430.75&#xA;        Q 609.41 425.24 612.43 420.40&#xA;        Q 614.08 417.77 619.18 412.14&#xA;        Q 623.40 407.47 628.13 403.32&#xA;        Q 632.00 399.91 638.75 394.55&#xA;        Q 644.10 390.31 649.86 386.36&#xA;        Q 651.24 385.41 652.91 385.51&#xA;        Q 661.09 385.99 665.19 393.06&#xA;        Q 667.16 396.48 669.41 405.41&#xA;        Q 675.98 431.60 677.48 458.52&#xA;        Q 677.88 465.72 676.59 470.37&#xA;        Q 672.61 484.74 658.48 489.78&#xA;        Q 654.35 491.25 647.81 491.41&#xA;        Q 638.53 491.64 629.25 491.55&#xA;        Q 621.52 491.47 615.67 486.58&#xA;        Z"/>
                            <path fill="#000000" d="&#xA;        M 179.79 418.50&#xA;        L 182.54 447.75&#xA;        Q 182.14 457.21 175.03 456.78&#xA;        Q 170.52 456.51 166.54 452.65&#xA;        Q 161.72 447.98 160.20 441.46&#xA;        Q 159.81 439.81 158.93 429.02&#xA;        Q 157.83 415.58 157.25 396.50&#xA;        Q 157.15 393.16 157.76 390.73&#xA;        Q 158.28 388.67 159.71 388.03&#xA;        Q 161.63 387.16 163.56 389.44&#xA;        Q 171.74 399.07 177.19 407.56&#xA;        Q 180.22 412.29 179.79 418.50&#xA;        Z&#xA;        M 170.83 452.86&#xA;        Q 172.42 454.02 174.50 454.28&#xA;        Q 177.30 454.62 178.70 452.80&#xA;        Q 179.53 451.71 179.70 449.51&#xA;        Q 179.85 447.77 179.73 446.00&#xA;        Q 178.72 431.11 177.25 416.25&#xA;        Q 176.88 412.51 175.43 409.70&#xA;        Q 175.17 409.19 171.67 404.18&#xA;        Q 166.90 397.35 161.57 390.95&#xA;        Q 160.10 389.18 160.00 391.48&#xA;        Q 159.49 403.44 160.42 415.34&#xA;        Q 161.23 425.65 161.36 427.68&#xA;        Q 161.88 435.63 162.50 440.00&#xA;        Q 163.36 446.05 167.97 450.33&#xA;        Q 170.27 452.45 170.83 452.86&#xA;        Z"/>
                            <path fill="#000000" d="&#xA;        M 814.96 449.50&#xA;        L 816.46 427.75&#xA;        Q 816.64 423.10 817.23 418.49&#xA;        Q 817.28 418.06 817.51 414.50&#xA;        Q 817.66 412.06 818.56 410.56&#xA;        Q 825.29 399.31 833.91 389.41&#xA;        Q 835.52 387.57 837.32 388.23&#xA;        Q 838.68 388.73 839.23 390.55&#xA;        Q 840.16 393.62 840.00 397.75&#xA;        Q 839.32 415.18 838.42 427.02&#xA;        Q 837.40 440.48 836.87 442.43&#xA;        Q 834.74 450.40 827.47 455.66&#xA;        Q 826.03 456.71 824.26 457.00&#xA;        Q 815.36 458.46 814.96 449.50&#xA;        Z&#xA;        M 820.00 454.21&#xA;        Q 822.78 455.56 825.40 453.92&#xA;        Q 826.48 453.25 829.25 450.71&#xA;        Q 833.74 446.59 834.50 441.50&#xA;        Q 836.22 429.97 837.16 406.88&#xA;        Q 837.16 406.79 837.44 402.13&#xA;        Q 837.74 396.97 837.18 391.80&#xA;        Q 836.98 389.89 835.71 391.33&#xA;        Q 827.99 400.03 821.82 410.27&#xA;        Q 820.50 412.45 820.19 415.07&#xA;        Q 818.19 432.22 817.30 449.64&#xA;        Q 817.14 452.82 820.00 454.21&#xA;        Z"/>
                            <path id="tooth" fill="#ffffff" d="&#xA;        M 167.97 450.33&#xA;        Q 163.36 446.05 162.50 440.00&#xA;        Q 161.88 435.63 161.36 427.68&#xA;        Q 161.23 425.65 160.42 415.34&#xA;        Q 159.49 403.44 160.00 391.48&#xA;        Q 160.10 389.18 161.57 390.95&#xA;        Q 166.90 397.35 171.67 404.18&#xA;        Q 175.17 409.19 175.43 409.70&#xA;        Q 176.88 412.51 177.25 416.25&#xA;        Q 178.72 431.11 179.73 446.00&#xA;        Q 179.85 447.77 179.70 449.51&#xA;        Q 179.53 451.71 178.70 452.80&#xA;        Q 177.30 454.62 174.50 454.28&#xA;        Q 172.42 454.02 170.83 452.86&#xA;        Q 170.27 452.45 167.97 450.33&#xA;        Z"/>
                            <path id="tooth" fill="#f00" d="&#xA;        M 820.00 454.21&#xA;        Q 817.14 452.82 817.30 449.64&#xA;        Q 818.19 432.22 820.19 415.07&#xA;        Q 820.50 412.45 821.82 410.27&#xA;        Q 827.99 400.03 835.71 391.33&#xA;        Q 836.98 389.89 837.18 391.80&#xA;        Q 837.74 396.97 837.44 402.13&#xA;        Q 837.16 406.79 837.16 406.88&#xA;        Q 836.22 429.97 834.50 441.50&#xA;        Q 833.74 446.59 829.25 450.71&#xA;        Q 826.48 453.25 825.40 453.92&#xA;        Q 822.78 455.56 820.00 454.21&#xA;        Z"/>
                            <path id="tooth" fill="#ffffff" d="&#xA;        M 190.95 462.06&#xA;        Q 186.75 457.68 186.00 452.00&#xA;        Q 184.19 438.36 183.14 416.15&#xA;        Q 183.14 416.09 182.72 409.86&#xA;        Q 182.22 402.41 183.25 394.98&#xA;        Q 183.72 391.65 186.13 393.99&#xA;        Q 196.91 404.45 206.58 417.45&#xA;        Q 207.54 418.73 207.71 420.31&#xA;        Q 209.94 440.11 211.39 460.24&#xA;        Q 212.10 470.17 202.25 469.25&#xA;        Q 199.10 468.96 195.95 466.55&#xA;        Q 193.37 464.59 190.95 462.06&#xA;        Z"/>
                            <path id="tooth" fill="#ffffff" d="&#xA;        M 786.89 466.43&#xA;        Q 785.43 464.05 785.78 461.03&#xA;        Q 786.07 458.50 786.07 458.45&#xA;        Q 787.18 438.90 789.75 419.50&#xA;        Q 789.92 418.19 792.94 414.45&#xA;        Q 801.31 404.11 811.22 394.16&#xA;        A 1.42 1.42 -36.4 0 1 813.49 394.50&#xA;        Q 814.72 396.89 814.57 400.29&#xA;        Q 814.49 402.14 814.48 402.20&#xA;        Q 814.17 419.79 812.66 437.31&#xA;        Q 811.37 452.37 810.42 455.22&#xA;        Q 807.28 464.65 797.06 469.06&#xA;        Q 794.22 470.29 791.28 469.57&#xA;        Q 788.36 468.85 786.89 466.43&#xA;        Z"/>
                            <path fill="#656260" d="&#xA;        M 180.54 418.00&#xA;        L 182.96 447.50&#xA;        L 182.54 447.75&#xA;        L 179.79 418.50&#xA;        Q 180.32 418.53 180.54 418.00&#xA;        Z"/>
                            <path fill="#656260" d="&#xA;        M 816.46 427.75&#xA;        L 814.96 449.50&#xA;        Q 814.76 449.04 814.29 449.00&#xA;        L 815.79 428.00&#xA;        Q 816.08 427.74 816.46 427.75&#xA;        Z"/>
                            <path fill="#000000" d="&#xA;        M 147.72 566.62&#xA;        Q 146.02 565.18 145.75 562.58&#xA;        Q 145.24 557.56 145.46 552.50&#xA;        Q 146.16 536.94 149.83 521.89&#xA;        Q 152.19 512.22 153.98 507.72&#xA;        Q 156.85 500.51 161.69 494.94&#xA;        Q 165.30 490.78 170.32 491.16&#xA;        Q 173.17 491.37 178.67 493.73&#xA;        Q 184.86 496.38 191.19 501.06&#xA;        Q 193.45 502.74 193.67 504.93&#xA;        A 1.09 0.97 -25.9 0 1 193.32 505.77&#xA;        Q 181.05 517.04 176.89 533.29&#xA;        Q 174.66 542.01 173.44 550.95&#xA;        Q 173.17 552.92 171.37 553.77&#xA;        Q 160.50 558.95 150.24 566.70&#xA;        A 2.02 2.01 46.8 0 1 147.72 566.62&#xA;        Z&#xA;        M 190.42 503.59&#xA;        Q 182.26 497.38 173.36 494.51&#xA;        Q 170.35 493.55 168.06 494.10&#xA;        Q 165.20 494.79 163.18 496.81&#xA;        Q 161.58 498.42 159.00 503.27&#xA;        Q 157.14 506.79 155.85 510.58&#xA;        Q 148.26 532.89 148.02 556.50&#xA;        Q 147.98 560.24 148.57 563.99&#xA;        A 0.47 0.46 67.0 0 0 149.31 564.29&#xA;        Q 158.62 557.14 170.00 551.50&#xA;        A 1.79 1.77 80.7 0 0 170.98 550.12&#xA;        Q 171.95 542.54 173.52 535.20&#xA;        Q 177.28 517.59 190.50 505.13&#xA;        A 1.01 1.01 42.3 0 0 190.42 503.59&#xA;        Z"/>
                            <path fill="#000000" d="&#xA;        M 807.00 506.16&#xA;        Q 805.52 504.80 806.73 503.20&#xA;        Q 808.28 501.14 810.72 499.46&#xA;        Q 818.23 494.28 826.98 491.68&#xA;        Q 832.98 489.89 837.40 494.10&#xA;        Q 841.71 498.21 844.19 503.63&#xA;        Q 846.87 509.50 848.64 515.71&#xA;        Q 854.80 537.29 854.35 559.75&#xA;        Q 854.29 562.82 853.18 565.70&#xA;        Q 852.15 568.37 849.86 566.66&#xA;        Q 839.94 559.28 828.15 553.48&#xA;        A 2.55 2.52 -80.7 0 1 826.75 551.51&#xA;        Q 825.54 541.77 822.83 532.41&#xA;        Q 820.31 523.76 816.93 518.19&#xA;        Q 812.95 511.63 807.00 506.16&#xA;        Z&#xA;        M 830.35 551.77&#xA;        Q 840.99 556.87 850.42 564.02&#xA;        A 0.67 0.67 23.0 0 0 851.49 563.59&#xA;        Q 852.00 560.36 851.98 556.75&#xA;        Q 851.86 531.19 842.78 507.37&#xA;        Q 840.39 501.09 836.94 497.06&#xA;        Q 833.76 493.35 829.41 493.76&#xA;        Q 827.23 493.97 822.20 496.14&#xA;        Q 815.59 498.98 809.55 503.60&#xA;        A 0.99 0.99 -42.4 0 0 809.48 505.12&#xA;        Q 818.22 513.13 822.49 523.89&#xA;        Q 827.49 536.50 828.98 549.84&#xA;        A 2.44 2.42 -80.6 0 0 830.35 551.77&#xA;        Z"/>
                            <path id="tooth" fill="#ffffff" d="&#xA;        M 190.42 503.59&#xA;        A 1.01 1.01 42.3 0 1 190.50 505.13&#xA;        Q 177.28 517.59 173.52 535.20&#xA;        Q 171.95 542.54 170.98 550.12&#xA;        A 1.79 1.77 80.7 0 1 170.00 551.50&#xA;        Q 158.62 557.14 149.31 564.29&#xA;        A 0.47 0.46 67.0 0 1 148.57 563.99&#xA;        Q 147.98 560.24 148.02 556.50&#xA;        Q 148.26 532.89 155.85 510.58&#xA;        Q 157.14 506.79 159.00 503.27&#xA;        Q 161.58 498.42 163.18 496.81&#xA;        Q 165.20 494.79 168.06 494.10&#xA;        Q 170.35 493.55 173.36 494.51&#xA;        Q 182.26 497.38 190.42 503.59&#xA;        Z"/>
                            <path id="tooth" fill="#ffffff" d="&#xA;        M 830.35 551.77&#xA;        A 2.44 2.42 -80.6 0 1 828.98 549.84&#xA;        Q 827.49 536.50 822.49 523.89&#xA;        Q 818.22 513.13 809.48 505.12&#xA;        A 0.99 0.99 -42.4 0 1 809.55 503.60&#xA;        Q 815.59 498.98 822.20 496.14&#xA;        Q 827.23 493.97 829.41 493.76&#xA;        Q 833.76 493.35 836.94 497.06&#xA;        Q 840.39 501.09 842.78 507.37&#xA;        Q 851.86 531.19 851.98 556.75&#xA;        Q 852.00 560.36 851.49 563.59&#xA;        A 0.67 0.67 23.0 0 1 850.42 564.02&#xA;        Q 840.99 556.87 830.35 551.77&#xA;        Z"/>
                            <path fill="#000000" d="&#xA;        M 184.69 596.06&#xA;        Q 181.95 594.65 180.35 590.18&#xA;        Q 177.88 583.30 177.44 576.00&#xA;        Q 176.77 564.99 177.81 554.01&#xA;        Q 179.24 538.90 185.60 525.15&#xA;        Q 190.91 513.66 200.06 507.06&#xA;        Q 203.75 504.41 208.72 505.37&#xA;        Q 211.35 505.88 211.44 505.89&#xA;        Q 226.73 508.18 233.94 510.81&#xA;        Q 239.03 512.67 239.48 517.51&#xA;        Q 239.67 519.57 238.19 525.26&#xA;        Q 232.38 547.55 230.44 555.94&#xA;        Q 228.38 564.81 220.74 568.66&#xA;        Q 217.99 570.04 217.93 570.07&#xA;        Q 204.06 578.00 195.44 593.44&#xA;        Q 191.90 599.78 184.69 596.06&#xA;        Z&#xA;        M 187.36 594.56&#xA;        Q 189.12 595.20 190.97 594.34&#xA;        Q 192.24 593.75 193.23 591.90&#xA;        Q 202.28 574.93 219.61 566.41&#xA;        Q 225.49 563.51 227.25 557.75&#xA;        Q 229.45 550.55 236.48 521.17&#xA;        Q 237.12 518.49 236.53 516.82&#xA;        Q 235.66 514.40 233.43 513.31&#xA;        Q 232.96 513.08 227.54 511.76&#xA;        Q 217.24 509.25 206.73 507.75&#xA;        Q 204.76 507.47 203.04 508.47&#xA;        Q 195.73 512.74 191.23 520.31&#xA;        Q 184.86 531.03 182.17 543.23&#xA;        Q 178.42 560.32 180.06 577.77&#xA;        Q 180.70 584.66 183.65 591.13&#xA;        Q 184.78 593.62 187.36 594.56&#xA;        Z"/>
                            <path fill="#000000" d="&#xA;        M 775.41 566.10&#xA;        Q 770.81 562.00 769.55 556.07&#xA;        Q 768.79 552.50 768.78 552.46&#xA;        Q 764.97 537.82 761.33 523.12&#xA;        Q 760.27 518.84 761.02 516.33&#xA;        Q 762.24 512.23 766.23 510.62&#xA;        Q 766.76 510.41 773.29 508.90&#xA;        Q 782.94 506.66 792.76 505.29&#xA;        Q 796.53 504.77 799.62 506.86&#xA;        Q 803.70 509.62 806.80 513.45&#xA;        Q 813.85 522.15 817.40 532.78&#xA;        Q 826.15 559.00 821.00 586.25&#xA;        Q 820.56 588.57 818.87 592.06&#xA;        Q 815.82 598.37 808.83 596.87&#xA;        Q 805.83 596.22 804.58 593.58&#xA;        Q 804.03 592.42 803.98 592.33&#xA;        Q 795.40 576.71 780.19 569.06&#xA;        Q 776.85 567.39 775.41 566.10&#xA;        Z&#xA;        M 778.42 565.11&#xA;        Q 779.24 565.73 780.17 566.17&#xA;        Q 797.44 574.49 807.11 592.71&#xA;        A 3.26 3.24 -2.6 0 0 808.76 594.21&#xA;        Q 812.13 595.59 814.53 593.49&#xA;        Q 815.99 592.21 817.18 588.98&#xA;        Q 819.96 581.40 820.25 572.00&#xA;        Q 820.84 552.80 815.94 536.31&#xA;        Q 814.12 530.22 810.83 524.26&#xA;        Q 807.55 518.34 805.05 515.28&#xA;        Q 801.53 510.96 796.73 508.36&#xA;        Q 795.22 507.54 793.52 507.76&#xA;        Q 781.55 509.33 770.96 512.14&#xA;        Q 767.02 513.18 766.91 513.23&#xA;        Q 764.67 514.13 763.70 516.21&#xA;        Q 762.79 518.15 763.68 521.80&#xA;        Q 767.97 539.53 772.69 557.15&#xA;        Q 773.92 561.74 778.42 565.11&#xA;        Z"/>
                            <path id="tooth" fill="#ffffff" d="&#xA;        M 187.36 594.56&#xA;        Q 184.78 593.62 183.65 591.13&#xA;        Q 180.70 584.66 180.06 577.77&#xA;        Q 178.42 560.32 182.17 543.23&#xA;        Q 184.86 531.03 191.23 520.31&#xA;        Q 195.73 512.74 203.04 508.47&#xA;        Q 204.76 507.47 206.73 507.75&#xA;        Q 217.24 509.25 227.54 511.76&#xA;        Q 232.96 513.08 233.43 513.31&#xA;        Q 235.66 514.40 236.53 516.82&#xA;        Q 237.12 518.49 236.48 521.17&#xA;        Q 229.45 550.55 227.25 557.75&#xA;        Q 225.49 563.51 219.61 566.41&#xA;        Q 202.28 574.93 193.23 591.90&#xA;        Q 192.24 593.75 190.97 594.34&#xA;        Q 189.12 595.20 187.36 594.56&#xA;        Z"/>
                            <path id="tooth" fill="#ffffff" d="&#xA;        M 778.42 565.11&#xA;        Q 773.92 561.74 772.69 557.15&#xA;        Q 767.97 539.53 763.68 521.80&#xA;        Q 762.79 518.15 763.70 516.21&#xA;        Q 764.67 514.13 766.91 513.23&#xA;        Q 767.02 513.18 770.96 512.14&#xA;        Q 781.55 509.33 793.52 507.76&#xA;        Q 795.22 507.54 796.73 508.36&#xA;        Q 801.53 510.96 805.05 515.28&#xA;        Q 807.55 518.34 810.83 524.26&#xA;        Q 814.12 530.22 815.94 536.31&#xA;        Q 820.84 552.80 820.25 572.00&#xA;        Q 819.96 581.40 817.18 588.98&#xA;        Q 815.99 592.21 814.53 593.49&#xA;        Q 812.13 595.59 808.76 594.21&#xA;        A 3.26 3.24 -2.6 0 1 807.11 592.71&#xA;        Q 797.44 574.49 780.17 566.17&#xA;        Q 779.24 565.73 778.42 565.11&#xA;        Z"/>
                            <path fill="#000000" d="&#xA;        M 278.95 515.07&#xA;        Q 284.48 519.76 284.49 527.25&#xA;        Q 284.50 544.13 284.50 561.00&#xA;        Q 284.50 564.51 281.46 568.71&#xA;        Q 277.52 574.16 272.75 578.84&#xA;        Q 269.18 582.35 262.81 587.71&#xA;        Q 257.11 592.51 250.31 597.31&#xA;        Q 247.02 599.64 243.62 599.05&#xA;        Q 240.66 598.53 238.39 595.53&#xA;        Q 235.83 592.14 235.01 587.75&#xA;        Q 233.17 577.97 233.12 568.08&#xA;        Q 233.06 558.23 234.25 548.43&#xA;        Q 236.04 533.72 241.75 519.89&#xA;        Q 243.39 515.92 246.05 512.55&#xA;        Q 247.31 510.95 249.04 510.04&#xA;        Q 250.42 509.30 252.73 509.25&#xA;        Q 263.71 508.99 273.25 511.75&#xA;        Q 275.97 512.54 278.95 515.07&#xA;        Z&#xA;        M 276.81 516.44&#xA;        Q 271.50 513.02 264.27 512.28&#xA;        Q 257.90 511.64 252.09 511.74&#xA;        Q 250.20 511.77 248.95 513.18&#xA;        Q 244.97 517.62 242.86 523.20&#xA;        Q 240.04 530.66 238.50 538.50&#xA;        Q 234.80 557.33 235.93 576.50&#xA;        Q 236.31 582.96 238.06 589.19&#xA;        Q 239.01 592.58 240.94 594.81&#xA;        Q 243.26 597.50 246.91 596.12&#xA;        Q 248.48 595.53 251.81 593.06&#xA;        Q 266.81 581.95 277.31 570.06&#xA;        Q 279.66 567.39 280.94 564.19&#xA;        Q 281.94 561.71 281.99 557.53&#xA;        Q 282.16 542.74 281.83 527.97&#xA;        Q 281.73 523.57 281.00 521.63&#xA;        Q 279.77 518.34 276.81 516.44&#xA;        Z"/>
                            <path fill="#000000" d="&#xA;        M 728.79 580.47&#xA;        Q 725.80 577.66 720.94 571.81&#xA;        Q 718.24 568.57 716.79 565.30&#xA;        Q 715.57 562.56 715.54 557.87&#xA;        Q 715.42 538.78 715.50 529.25&#xA;        Q 715.53 526.23 716.46 522.30&#xA;        Q 717.46 518.06 720.40 515.31&#xA;        Q 722.69 513.16 727.23 511.81&#xA;        Q 734.94 509.50 744.75 509.25&#xA;        Q 747.50 509.18 749.46 509.58&#xA;        Q 751.55 510.01 753.28 512.02&#xA;        Q 758.10 517.60 760.75 526.00&#xA;        Q 767.35 546.91 766.75 571.25&#xA;        Q 766.46 582.78 764.00 591.00&#xA;        Q 763.63 592.24 762.56 594.19&#xA;        Q 761.55 596.00 760.54 596.99&#xA;        Q 757.77 599.68 754.10 599.13&#xA;        Q 751.89 598.80 748.44 596.40&#xA;        Q 738.03 589.16 728.79 580.47&#xA;        Z&#xA;        M 732.32 580.19&#xA;        Q 740.76 587.91 750.14 594.45&#xA;        Q 753.01 596.45 754.85 596.66&#xA;        Q 758.21 597.05 759.94 593.69&#xA;        Q 762.92 587.89 763.84 580.53&#xA;        Q 764.42 575.88 764.38 566.96&#xA;        Q 764.28 546.61 758.40 527.03&#xA;        Q 757.20 523.04 753.56 516.44&#xA;        Q 751.43 512.57 747.88 511.82&#xA;        Q 746.53 511.53 741.09 511.83&#xA;        Q 734.86 512.18 728.93 513.98&#xA;        Q 723.95 515.48 721.70 517.62&#xA;        Q 718.50 520.65 718.25 525.50&#xA;        Q 717.82 533.65 717.96 551.91&#xA;        Q 718.02 560.15 718.19 561.08&#xA;        Q 719.02 565.56 722.44 569.56&#xA;        Q 728.63 576.83 732.32 580.19&#xA;        Z"/>
                            <path id="tooth" fill="#ffffff" d="&#xA;        M 276.81 516.44&#xA;        Q 279.77 518.34 281.00 521.63&#xA;        Q 281.73 523.57 281.83 527.97&#xA;        Q 282.16 542.74 281.99 557.53&#xA;        Q 281.94 561.71 280.94 564.19&#xA;        Q 279.66 567.39 277.31 570.06&#xA;        Q 266.81 581.95 251.81 593.06&#xA;        Q 248.48 595.53 246.91 596.12&#xA;        Q 243.26 597.50 240.94 594.81&#xA;        Q 239.01 592.58 238.06 589.19&#xA;        Q 236.31 582.96 235.93 576.50&#xA;        Q 234.80 557.33 238.50 538.50&#xA;        Q 240.04 530.66 242.86 523.20&#xA;        Q 244.97 517.62 248.95 513.18&#xA;        Q 250.20 511.77 252.09 511.74&#xA;        Q 257.90 511.64 264.27 512.28&#xA;        Q 271.50 513.02 276.81 516.44&#xA;        Z"/>
                            <path id="tooth" fill="#ffffff" d="&#xA;        M 732.32 580.19&#xA;        Q 728.63 576.83 722.44 569.56&#xA;        Q 719.02 565.56 718.19 561.08&#xA;        Q 718.02 560.15 717.96 551.91&#xA;        Q 717.82 533.65 718.25 525.50&#xA;        Q 718.50 520.65 721.70 517.62&#xA;        Q 723.95 515.48 728.93 513.98&#xA;        Q 734.86 512.18 741.09 511.83&#xA;        Q 746.53 511.53 747.88 511.82&#xA;        Q 751.43 512.57 753.56 516.44&#xA;        Q 757.20 523.04 758.40 527.03&#xA;        Q 764.28 546.61 764.38 566.96&#xA;        Q 764.42 575.88 763.84 580.53&#xA;        Q 762.92 587.89 759.94 593.69&#xA;        Q 758.21 597.05 754.85 596.66&#xA;        Q 753.01 596.45 750.14 594.45&#xA;        Q 740.76 587.91 732.32 580.19&#xA;        Z"/>
                            <path fill="#000000" d="&#xA;        M 301.63 627.21&#xA;        Q 297.61 622.17 295.00 615.00&#xA;        Q 287.80 595.23 287.46 576.50&#xA;        Q 287.04 553.89 287.00 531.28&#xA;        Q 286.99 522.52 288.46 519.44&#xA;        Q 290.71 514.70 296.22 513.72&#xA;        Q 299.17 513.19 305.22 514.38&#xA;        Q 319.01 517.08 332.78 519.83&#xA;        Q 344.01 522.07 346.14 523.20&#xA;        Q 353.25 526.97 353.25 536.75&#xA;        Q 353.25 554.25 353.25 571.75&#xA;        Q 353.25 578.01 352.09 583.21&#xA;        Q 351.07 587.82 347.62 593.67&#xA;        Q 337.25 611.25 323.19 624.94&#xA;        Q 320.24 627.80 315.68 630.51&#xA;        Q 311.51 632.98 307.58 631.80&#xA;        Q 304.56 630.89 301.63 627.21&#xA;        Z&#xA;        M 306.44 628.56&#xA;        Q 309.70 630.49 312.69 628.94&#xA;        Q 319.26 625.53 324.72 619.96&#xA;        Q 327.55 617.07 334.26 608.53&#xA;        Q 341.47 599.36 346.44 590.94&#xA;        Q 350.80 583.56 350.64 574.44&#xA;        Q 350.55 569.14 350.55 569.06&#xA;        Q 350.83 553.50 350.57 537.94&#xA;        Q 350.49 532.84 349.25 530.28&#xA;        Q 347.32 526.28 343.31 524.63&#xA;        Q 343.09 524.54 332.66 522.40&#xA;        Q 313.16 518.41 301.25 516.25&#xA;        Q 294.21 514.97 291.28 519.74&#xA;        Q 289.76 522.21 289.69 528.08&#xA;        Q 289.46 546.67 289.79 565.25&#xA;        Q 290.06 580.86 290.47 585.24&#xA;        Q 292.18 603.73 300.26 620.72&#xA;        Q 303.03 626.55 306.44 628.56&#xA;        Z"/>
                            <path fill="#000000" d="&#xA;        M 677.59 625.67&#xA;        Q 669.83 618.59 663.52 610.19&#xA;        Q 655.06 598.91 650.56 590.94&#xA;        Q 648.70 587.63 647.70 583.09&#xA;        Q 647.01 580.00 646.92 574.85&#xA;        Q 646.50 551.51 646.75 536.25&#xA;        Q 646.88 528.23 652.28 524.32&#xA;        Q 655.08 522.29 663.70 520.54&#xA;        Q 679.37 517.37 695.06 514.31&#xA;        Q 699.03 513.54 701.50 513.50&#xA;        Q 708.91 513.39 711.69 519.81&#xA;        Q 713.09 523.06 713.07 527.50&#xA;        Q 712.96 551.63 712.64 575.75&#xA;        Q 712.32 599.17 702.66 620.43&#xA;        Q 700.05 626.18 696.44 629.69&#xA;        Q 692.84 633.18 687.56 631.69&#xA;        Q 682.67 630.31 677.59 625.67&#xA;        Z&#xA;        M 677.59 622.15&#xA;        Q 681.70 626.30 686.98 628.79&#xA;        Q 690.86 630.62 693.50 628.75&#xA;        Q 697.38 626.00 700.26 619.72&#xA;        Q 709.45 599.65 710.00 577.50&#xA;        Q 710.42 560.52 710.50 526.00&#xA;        Q 710.52 518.28 704.62 516.55&#xA;        Q 701.73 515.70 695.03 516.96&#xA;        Q 679.19 519.96 663.39 523.22&#xA;        Q 657.45 524.45 656.52 524.81&#xA;        Q 652.78 526.26 650.97 529.61&#xA;        Q 649.52 532.30 649.40 539.14&#xA;        Q 649.07 557.27 649.59 575.39&#xA;        Q 649.77 581.71 651.17 585.41&#xA;        Q 652.82 589.77 655.94 594.56&#xA;        Q 666.80 611.24 677.59 622.15&#xA;        Z"/>
                            <path id="tooth" fill="#ffffff" d="&#xA;        M 306.44 628.56&#xA;        Q 303.03 626.55 300.26 620.72&#xA;        Q 292.18 603.73 290.47 585.24&#xA;        Q 290.06 580.86 289.79 565.25&#xA;        Q 289.46 546.67 289.69 528.08&#xA;        Q 289.76 522.21 291.28 519.74&#xA;        Q 294.21 514.97 301.25 516.25&#xA;        Q 313.16 518.41 332.66 522.40&#xA;        Q 343.09 524.54 343.31 524.63&#xA;        Q 347.32 526.28 349.25 530.28&#xA;        Q 350.49 532.84 350.57 537.94&#xA;        Q 350.83 553.50 350.55 569.06&#xA;        Q 350.55 569.14 350.64 574.44&#xA;        Q 350.80 583.56 346.44 590.94&#xA;        Q 341.47 599.36 334.26 608.53&#xA;        Q 327.55 617.07 324.72 619.96&#xA;        Q 319.26 625.53 312.69 628.94&#xA;        Q 309.70 630.49 306.44 628.56&#xA;        Z"/>
                            <path id="tooth" fill="#ffffff" d="&#xA;        M 677.59 622.15&#xA;        Q 666.80 611.24 655.94 594.56&#xA;        Q 652.82 589.77 651.17 585.41&#xA;        Q 649.77 581.71 649.59 575.39&#xA;        Q 649.07 557.27 649.40 539.14&#xA;        Q 649.52 532.30 650.97 529.61&#xA;        Q 652.78 526.26 656.52 524.81&#xA;        Q 657.45 524.45 663.39 523.22&#xA;        Q 679.19 519.96 695.03 516.96&#xA;        Q 701.73 515.70 704.62 516.55&#xA;        Q 710.52 518.28 710.50 526.00&#xA;        Q 710.42 560.52 710.00 577.50&#xA;        Q 709.45 599.65 700.26 619.72&#xA;        Q 697.38 626.00 693.50 628.75&#xA;        Q 690.86 630.62 686.98 628.79&#xA;        Q 681.70 626.30 677.59 622.15&#xA;        Z"/>
                            <path fill="#000000" d="&#xA;        M 380.56 631.62&#xA;        Q 375.73 627.67 372.87 622.66&#xA;        Q 360.91 601.76 357.19 578.56&#xA;        Q 355.90 570.58 356.22 561.96&#xA;        Q 356.55 552.62 356.55 552.53&#xA;        Q 356.65 545.70 356.84 538.87&#xA;        Q 357.04 531.50 358.68 528.43&#xA;        Q 362.07 522.08 370.75 522.75&#xA;        Q 383.35 523.72 395.96 524.64&#xA;        Q 410.12 525.66 412.89 526.70&#xA;        Q 419.91 529.34 422.75 536.75&#xA;        Q 424.18 540.49 424.22 548.07&#xA;        Q 424.36 569.64 424.25 574.50&#xA;        Q 423.95 588.23 418.40 600.41&#xA;        Q 415.46 606.88 411.43 613.04&#xA;        Q 407.47 619.11 402.30 624.29&#xA;        Q 398.13 628.48 392.80 631.04&#xA;        Q 388.07 633.32 383.18 632.73&#xA;        A 5.08 5.04 67.8 0 1 380.56 631.62&#xA;        Z&#xA;        M 384.36 630.13&#xA;        Q 387.46 630.71 390.81 629.06&#xA;        Q 396.57 626.24 400.14 622.64&#xA;        Q 414.32 608.33 419.52 589.34&#xA;        Q 421.23 583.08 421.62 573.48&#xA;        Q 422.45 552.77 421.50 542.00&#xA;        Q 420.80 534.05 414.19 530.12&#xA;        Q 411.57 528.57 406.96 528.13&#xA;        Q 388.54 526.35 370.05 525.43&#xA;        Q 366.96 525.28 365.19 526.05&#xA;        Q 362.70 527.12 361.22 529.30&#xA;        Q 359.79 531.40 359.59 536.04&#xA;        Q 359.05 548.85 358.85 561.66&#xA;        Q 358.69 572.01 359.96 579.24&#xA;        Q 362.80 595.39 370.19 612.06&#xA;        Q 374.08 620.85 379.28 626.78&#xA;        Q 381.80 629.65 384.36 630.13&#xA;        Z"/>
                            <path fill="#000000" d="&#xA;        M 600.41 626.59&#xA;        Q 582.02 609.72 577.04 585.90&#xA;        Q 575.75 579.73 575.75 569.48&#xA;        Q 575.75 559.92 575.75 550.36&#xA;        Q 575.75 540.22 577.31 536.34&#xA;        Q 579.78 530.21 585.89 527.26&#xA;        Q 589.30 525.62 596.40 525.12&#xA;        Q 608.77 524.26 621.15 523.43&#xA;        Q 632.12 522.71 634.32 523.20&#xA;        Q 642.46 525.04 642.93 535.75&#xA;        Q 643.54 549.50 643.70 563.26&#xA;        Q 643.81 572.95 642.53 580.15&#xA;        Q 638.70 601.81 627.98 621.24&#xA;        Q 624.19 628.11 620.19 631.19&#xA;        Q 616.30 634.18 610.65 632.44&#xA;        Q 604.87 630.67 600.41 626.59&#xA;        Z&#xA;        M 600.86 623.64&#xA;        Q 606.64 629.23 613.00 630.25&#xA;        Q 617.31 630.94 620.19 627.69&#xA;        Q 624.16 623.19 626.62 618.59&#xA;        Q 635.55 601.90 639.49 583.35&#xA;        Q 641.66 573.17 641.29 562.75&#xA;        Q 640.85 550.07 640.57 537.40&#xA;        Q 640.47 533.04 639.79 531.19&#xA;        Q 638.52 527.79 635.40 526.31&#xA;        Q 632.92 525.13 626.97 525.55&#xA;        Q 612.09 526.58 597.22 527.62&#xA;        Q 589.87 528.13 586.58 529.80&#xA;        Q 578.48 533.92 578.25 544.50&#xA;        Q 578.03 554.68 578.32 570.89&#xA;        Q 578.51 581.16 580.02 587.48&#xA;        Q 585.03 608.35 600.86 623.64&#xA;        Z"/>
                            <path id="tooth" fill="#ffffff" d="&#xA;        M 379.28 626.78&#xA;        Q 374.08 620.85 370.19 612.06&#xA;        Q 362.80 595.39 359.96 579.24&#xA;        Q 358.69 572.01 358.85 561.66&#xA;        Q 359.05 548.85 359.59 536.04&#xA;        Q 359.79 531.40 361.22 529.30&#xA;        Q 362.70 527.12 365.19 526.05&#xA;        Q 366.96 525.28 370.05 525.43&#xA;        Q 388.54 526.35 406.96 528.13&#xA;        Q 411.57 528.57 414.19 530.12&#xA;        Q 420.80 534.05 421.50 542.00&#xA;        Q 422.45 552.77 421.62 573.48&#xA;        Q 421.23 583.08 419.52 589.34&#xA;        Q 414.32 608.33 400.14 622.64&#xA;        Q 396.57 626.24 390.81 629.06&#xA;        Q 387.46 630.71 384.36 630.13&#xA;        Q 381.80 629.65 379.28 626.78&#xA;        Z"/>
                            <path id="tooth" fill="#ffffff" d="&#xA;        M 600.86 623.64&#xA;        Q 585.03 608.35 580.02 587.48&#xA;        Q 578.51 581.16 578.32 570.89&#xA;        Q 578.03 554.68 578.25 544.50&#xA;        Q 578.48 533.92 586.58 529.80&#xA;        Q 589.87 528.13 597.22 527.62&#xA;        Q 612.09 526.58 626.97 525.55&#xA;        Q 632.92 525.13 635.40 526.31&#xA;        Q 638.52 527.79 639.79 531.19&#xA;        Q 640.47 533.04 640.57 537.40&#xA;        Q 640.85 550.07 641.29 562.75&#xA;        Q 641.66 573.17 639.49 583.35&#xA;        Q 635.55 601.90 626.62 618.59&#xA;        Q 624.16 623.19 620.19 627.69&#xA;        Q 617.31 630.94 613.00 630.25&#xA;        Q 606.64 629.23 600.86 623.64&#xA;        Z"/>
                            <path fill="#000000" d="&#xA;        M 452.69 621.31&#xA;        Q 446.55 615.97 442.78 609.40&#xA;        Q 436.76 598.91 433.28 587.32&#xA;        Q 429.59 575.06 429.84 562.25&#xA;        Q 430.00 554.00 430.14 545.75&#xA;        Q 430.36 532.68 441.03 528.34&#xA;        Q 444.32 527.00 450.16 526.98&#xA;        Q 463.12 526.92 476.09 526.97&#xA;        Q 483.65 527.00 487.21 528.48&#xA;        Q 493.71 531.17 496.38 537.77&#xA;        Q 497.75 541.18 497.75 547.92&#xA;        Q 497.75 555.12 497.75 562.31&#xA;        Q 497.75 570.96 496.72 576.61&#xA;        Q 493.85 592.27 485.81 607.56&#xA;        Q 481.74 615.31 475.86 620.49&#xA;        Q 470.43 625.28 465.00 625.74&#xA;        Q 458.41 626.30 452.69 621.31&#xA;        Z&#xA;        M 452.60 617.90&#xA;        Q 454.60 619.84 456.97 621.30&#xA;        Q 463.32 625.20 469.85 621.54&#xA;        Q 475.13 618.58 478.64 613.65&#xA;        Q 487.11 601.74 491.35 587.91&#xA;        Q 493.43 581.10 494.42 575.52&#xA;        Q 495.53 569.21 495.39 562.75&#xA;        Q 495.26 556.69 495.25 550.62&#xA;        Q 495.25 550.53 495.30 547.89&#xA;        Q 495.56 532.79 483.62 530.03&#xA;        Q 481.45 529.53 466.84 529.49&#xA;        Q 458.42 529.46 450.00 529.38&#xA;        Q 436.69 529.26 433.39 540.23&#xA;        Q 432.50 543.18 432.50 549.37&#xA;        Q 432.50 553.98 432.50 558.59&#xA;        Q 432.50 567.80 433.01 572.39&#xA;        Q 435.25 592.48 446.11 609.86&#xA;        Q 448.87 614.27 452.60 617.90&#xA;        Z"/>
                            <path fill="#000000" d="&#xA;        M 524.69 621.06&#xA;        Q 519.81 616.67 517.20 612.55&#xA;        Q 507.64 597.46 503.69 578.81&#xA;        Q 502.06 571.13 502.11 565.00&#xA;        Q 502.18 555.88 502.27 546.77&#xA;        Q 502.32 540.77 503.69 537.56&#xA;        Q 506.40 531.17 512.71 528.47&#xA;        Q 516.14 527.00 523.00 526.94&#xA;        Q 535.35 526.84 547.70 526.94&#xA;        Q 555.93 527.01 559.57 528.57&#xA;        Q 565.52 531.12 568.29 537.18&#xA;        Q 569.73 540.33 569.89 546.06&#xA;        Q 570.37 562.98 570.00 568.00&#xA;        Q 567.91 596.20 551.44 617.44&#xA;        Q 549.37 620.11 545.88 622.48&#xA;        Q 542.42 624.85 539.11 625.48&#xA;        Q 531.26 626.98 524.69 621.06&#xA;        Z&#xA;        M 526.39 619.11&#xA;        Q 532.78 625.10 540.18 622.58&#xA;        Q 543.30 621.51 546.72 618.49&#xA;        Q 549.87 615.70 551.94 612.69&#xA;        Q 561.14 599.27 565.19 583.16&#xA;        Q 567.10 575.54 567.43 565.17&#xA;        Q 567.72 556.08 567.44 546.99&#xA;        Q 567.25 540.88 565.72 537.77&#xA;        Q 563.40 533.06 558.64 530.92&#xA;        Q 555.48 529.50 548.64 529.50&#xA;        Q 536.08 529.50 523.52 529.50&#xA;        Q 516.86 529.50 513.69 530.87&#xA;        Q 508.49 533.11 506.24 538.21&#xA;        Q 504.75 541.57 504.75 549.51&#xA;        Q 504.75 556.18 504.75 562.84&#xA;        Q 504.75 570.67 505.74 576.09&#xA;        Q 508.33 590.32 514.77 603.39&#xA;        Q 519.16 612.32 526.39 619.11&#xA;        Z"/>
                            <path id="tooth" fill="#ffffff" d="&#xA;        M 452.60 617.90&#xA;        Q 448.87 614.27 446.11 609.86&#xA;        Q 435.25 592.48 433.01 572.39&#xA;        Q 432.50 567.80 432.50 558.59&#xA;        Q 432.50 553.98 432.50 549.37&#xA;        Q 432.50 543.18 433.39 540.23&#xA;        Q 436.69 529.26 450.00 529.38&#xA;        Q 458.42 529.46 466.84 529.49&#xA;        Q 481.45 529.53 483.62 530.03&#xA;        Q 495.56 532.79 495.30 547.89&#xA;        Q 495.25 550.53 495.25 550.62&#xA;        Q 495.26 556.69 495.39 562.75&#xA;        Q 495.53 569.21 494.42 575.52&#xA;        Q 493.43 581.10 491.35 587.91&#xA;        Q 487.11 601.74 478.64 613.65&#xA;        Q 475.13 618.58 469.85 621.54&#xA;        Q 463.32 625.20 456.97 621.30&#xA;        Q 454.60 619.84 452.60 617.90&#xA;        Z"/>
                            <path id="tooth" fill="#ffffff" d="&#xA;        M 526.39 619.11&#xA;        Q 519.16 612.32 514.77 603.39&#xA;        Q 508.33 590.32 505.74 576.09&#xA;        Q 504.75 570.67 504.75 562.84&#xA;        Q 504.75 556.18 504.75 549.51&#xA;        Q 504.75 541.57 506.24 538.21&#xA;        Q 508.49 533.11 513.69 530.87&#xA;        Q 516.86 529.50 523.52 529.50&#xA;        Q 536.08 529.50 548.64 529.50&#xA;        Q 555.48 529.50 558.64 530.92&#xA;        Q 563.40 533.06 565.72 537.77&#xA;        Q 567.25 540.88 567.44 546.99&#xA;        Q 567.72 556.08 567.43 565.17&#xA;        Q 567.10 575.54 565.19 583.16&#xA;        Q 561.14 599.27 551.94 612.69&#xA;        Q 549.87 615.70 546.72 618.49&#xA;        Q 543.30 621.51 540.18 622.58&#xA;        Q 532.78 625.10 526.39 619.11&#xA;        Z"/>
                            <ellipse fill="#ffffff" filterUnits="userSpaceOnUse"/>
                        </svg>